<svg id="Capa_1" enable-background="new 0 0 512 512" height="512" viewBox="0 0 512 512" width="512" xmlns="http://www.w3.org/2000/svg"><g><path d="m256 215.001c50.492 0 91.571-41.079 91.571-91.571s-41.079-91.571-91.571-91.571c-50.493 0-91.572 41.079-91.572 91.571s41.079 91.571 91.572 91.571zm0-168.14c42.221 0 76.569 34.349 76.569 76.569 0 42.221-34.348 76.57-76.569 76.57s-76.57-34.349-76.57-76.569c0-42.221 34.349-76.57 76.57-76.57z"/><path d="m230.285 163.688c6.704 4.387 11.59 6.081 17.709 6.652v4.417c0 4.143 3.358 7.501 7.501 7.501s7.501-3.358 7.501-7.501v-5.122c12.179-3.149 19.986-13.576 21.714-23.859 2.234-13.286-4.979-25.292-17.949-29.876-7.499-2.651-15.799-5.857-20.5-9.544-1.685-1.322-2.403-4.145-1.828-7.192.57-3.027 2.615-6.693 6.641-7.906 9.123-2.752 15.138 1.987 15.763 2.507.184.178.249.222.47.393l1.244.959c3.284 2.529 7.992 1.916 10.521-1.361 2.529-3.282 1.919-7.991-1.361-10.521l-1.099-.846c-1.342-1.13-6.215-4.855-13.615-6.358v-3.925c0-4.143-3.358-7.501-7.501-7.501s-7.501 3.358-7.501 7.501v4.44c-.413.109-.828.221-1.248.347-8.751 2.637-15.287 10.107-17.056 19.493-1.624 8.619 1.177 16.962 7.312 21.774 5.166 4.051 12.339 7.494 24.759 11.884 8.845 3.126 8.649 10.304 8.155 13.246-.989 5.885-5.94 12.246-14.471 12.303-8.134.061-10.67-.351-16.947-4.458-3.467-2.267-8.115-1.297-10.383 2.17-2.27 3.466-1.298 8.115 2.169 10.383z"/><path d="m484.087 288.753c-2.069-4.477-6.417-7.258-11.349-7.258h-12.855v-108.035c0-6.893-5.608-12.501-12.501-12.501h-25.003c-6.893 0-12.501 5.608-12.501 12.501v108.036h-12.855c-4.931 0-9.279 2.781-11.348 7.257s-1.368 9.59 1.827 13.346l37.859 44.488c2.38 2.795 5.85 4.398 9.522 4.398 3.67-.001 7.139-1.605 9.519-4.4l37.857-44.485c3.196-3.756 3.897-8.87 1.828-13.347zm-49.206 45.871-32.446-38.127h9.943c6.893 0 12.501-5.608 12.501-12.501v-108.036h20.002v108.036c0 6.893 5.608 12.501 12.502 12.501h9.943z"/><path d="m416.077 512c4.339 0 8.388-2.142 10.83-5.728 2.443-3.587 2.953-8.139 1.363-12.176l-8.98-22.814c-1.517-3.854-5.874-5.749-9.727-4.232-3.855 1.517-5.75 5.872-4.232 9.727l7.96 20.222h-148.897l26.791-68.053c.562-1.427 1.915-2.349 3.449-2.349h88.417c1.533 0 2.887.922 3.449 2.349l6.676 16.957c1.517 3.855 5.876 5.751 9.727 4.232 3.855-1.518 5.75-5.873 4.232-9.727l-6.676-16.957c-2.834-7.202-9.667-11.856-17.407-11.856h-36.862c-.144-.983-.39-1.957-.763-2.903l-27.811-70.647c-2.836-7.2-9.669-11.853-17.407-11.853h-88.418c-7.739 0-14.571 4.653-17.407 11.855l-27.811 70.645c-.372.945-.618 1.92-.762 2.903h-36.861c-7.74 0-14.573 4.654-17.407 11.856l-27.813 70.644c-1.59 4.039-1.081 8.59 1.362 12.177 2.443 3.586 6.492 5.728 10.831 5.728zm-160.077-34.631-19.988-50.772h39.977zm-74.448-65.774 26.79-68.052c.562-1.427 1.915-2.349 3.449-2.349h88.418c1.533 0 2.887.922 3.449 2.348l26.79 68.053zm35.814 15.002c1.533 0 2.887.922 3.449 2.349l26.79 68.053h-148.896l26.791-68.053c.562-1.427 1.915-2.349 3.448-2.349z"/><path d="m102.122 338.482v-33.154c0-4.143-3.358-7.501-7.501-7.501-4.142 0-7.501 3.358-7.501 7.501v30.654h-20.002v-108.036c0-6.893-5.608-12.501-12.501-12.501h-9.944l32.446-38.127 32.446 38.127h-9.943c-6.893 0-12.501 5.608-12.501 12.501v44.704c0 4.143 3.358 7.501 7.501 7.501s7.501-3.358 7.501-7.501v-42.204h12.854c4.931 0 9.28-2.781 11.348-7.257 2.069-4.477 1.368-9.591-1.828-13.346l-37.857-44.485c-2.38-2.796-5.85-4.4-9.522-4.4-3.671 0-7.141 1.604-9.521 4.4l-37.857 44.485c-3.196 3.755-3.897 8.869-1.828 13.346 2.069 4.476 6.417 7.257 11.348 7.257h12.855v108.036c0 6.893 5.608 12.501 12.501 12.501h25.003c6.895.001 12.503-5.607 12.503-12.501z"/><path d="m139.834 119.568c4.134.396 7.791-2.614 8.194-6.737 2.43-24.904 13.531-48.384 31.26-66.112 42.299-42.3 111.127-42.299 153.424 0 42.3 42.299 42.3 111.125 0 153.424-42.298 42.301-111.124 42.3-153.424 0-15.803-15.802-26.211-35.739-30.099-57.659-.724-4.078-4.618-6.788-8.696-6.075-4.079.724-6.799 4.617-6.075 8.696 4.428 24.96 16.276 47.66 34.263 65.646 23.324 23.324 54.335 36.169 87.32 36.169s63.996-12.845 87.32-36.169 36.169-54.335 36.169-87.32-12.846-63.997-36.17-87.321c-48.15-48.146-126.492-48.147-174.64.001-20.179 20.18-32.817 46.909-35.583 75.262-.402 4.124 2.615 7.792 6.737 8.195z"/></g></svg>